<svg xmlns="http://www.w3.org/2000/svg" viewBox="0 0 327 327"><path fill="#282828" d="m165.69 326.95-.5.05c-57.98-.12-110.87-29.2-141-78.45C8.18 222.37 1.53 195.61 0 165.44v-1.75C.82 97.1 38.84 39.87 99.8 13.03q.72-.32 1.18.14a.41.4 32.9 0 0 .67-.14q.1-.25.24-.48.22-.38.74-.59c69.61-28.02 148.29-4.76 192.48 55.01 30.28 40.95 39.94 95.28 24.47 144.42a.99.98 2.5 0 1-.74.67q-.95.22-.28.89a1.01.99 31.8 0 1 .25 1.02c-17.51 53.61-60 92.36-113.83 107.62a1 .99 57.4 0 1-.93-.21q-.66-.57-1.15.33a1.02 1-81.7 0 1-.66.5q-18.04 4.1-36.55 4.74ZM161.82 5.8c-62.2.61-119.04 38.61-143.48 96.03Q4.81 133.62 5.82 169.01a1 .98 70.6 0 1-.39.83q-1.88 1.42.19 3.43a.95.94-71.2 0 1 .3.62q5.82 60.55 46.94 101.75c53.43 53.52 139.52 60.5 200.9 17.1 35.14-24.84 59.33-62.9 65.73-105.84C333.82 90.66 258.19 4.87 161.82 5.8ZM2.776 156.298a.64.51-15.6 0 0-.753-.32.64.51-15.6 0 0-.48.664.64.51-15.6 0 0 .754.32.64.51-15.6 0 0 .48-.664ZM317.57 206.98q.65-.3.35-1.02a.52.52 0 0 0-.81-.2q-.71.61-.1 1.15a.54.52-36.6 0 0 .56.07Z"/><path fill="#282828" d="m160.97 30.56-.43-9.84a1.01 1 81.2 0 0-1.26-.93q-1.63.44-2.51-.19-2.3-1.66.53-1.81l11.61-.64a1.03 1.02-23.3 0 1 .78.31q1.39 1.47-2.77 2.71a1 1 0 0 0-.71.97q.16 10.84.87 22.67c.09 1.63 1.2 2.48 2.77 2.25a1 .99 74.4 0 1 1.06.6l.19.43a.8.8 0 0 1-.7 1.11l-11.87.61a.81.8-7.8 0 1-.82-.62q-.3-1.3 2.95-2.32a1 1 0 0 0 .71-.97l-.21-9.52a1 1 0 0 0-1.03-.98l-10.49.38a1 1 0 0 0-.96 1.05l.44 9.71a1 .99 6.4 0 0 .74.92l2.73.74a.8.79-85.7 0 1 .58.68c.23 1.94-10.75 1.54-12.42 1.61a1 .99 82.9 0 1-1.02-.8l-.08-.39a.8.8 0 0 1 .74-.95q4.59-.28 2.77-4.95a1 1 0 0 1 .24-1.08q.69-.67.01-1.7a1.02.98-63.5 0 1-.16-.51l-.81-17.73a1 1 0 0 0-1.12-.95q-4.08.5-2.51-1.69a.97.96 16.4 0 1 .78-.42l11.34-.28a1.02 1.01 80.4 0 1 .99.71l.09.31a.52.51-18.6 0 1-.32.63l-2.66.96a1.01 1.01 0 0 0-.64.79l-.61 4a1.07.95 41.7 0 0 .06.52q.83 2.1.41 4.31-.47 2.39 1.82 1.9 4.86-1.06 9.8-.58a1 .99 1.8 0 0 1.1-1.03Zm3.236.798a.64.51-15.6 0 0-.753-.32.64.51-15.6 0 0-.48.664.64.51-15.6 0 0 .754.32.64.51-15.6 0 0 .48-.664ZM210.14 34.06q-.83 1.13.28.97a.8.8 0 0 1 .9.93l-1.43 8.63q-.47 2.88 1.67.9l6.95-6.43a1.06 1.02 77.5 0 0 .28-.46q1.88-6.51-.63-8.55a.81.81 0 0 1-.11-1.13l.23-.29a1 .99 34.1 0 1 1.27-.24q4.51 2.56 9.12 4.96 1.17.61.5 1.46a.82.79 17.8 0 1-.61.3l-2.63.08a1.01 1.01 0 0 0-.96.85l-2.14 13.42q-.25 1.59-1.37.43-.62-.65-.55.89a1.02 1.01-81.6 0 0 .65.89q1.15.43.45 1.2a.8.79 46.2 0 0-.02 1.04c.29.35 12.32-11.1 13.64-12.36a1 1 0 0 0 .06-1.38l-1.43-1.62a.81.81 0 0 1-.2-.63c.29-2.34 7.21 2.26 8.25 2.81.87.47 1.5 1.51.4 2.11a.99.97 38.7 0 1-.78.08q-2.13-.67-3.6.67c-1.74 1.58-10.61 10.39-11.98 10.65a1 .99-74.1 0 0-.57.32q-3.64 4.16-7.95 7.64c-3.18 2.56-1.62-4.76-1.49-5.7.22-1.61 1.24-3.67.89-5.99q-.27-1.74.98-2.26a.8.8 0 0 0 .25-1.32q-.55-.52-.33-1.32a.98.94-51.7 0 0-.07-.72l-.2-.39a.33.33 0 0 0-.52-.09q-5.65 5.24-11.38 10.39c-.97.87-3.08 1.72-2.8-.61q.63-5.14 4.21-28.14.22-1.42-1.65-2.88a.79.78 30.9 0 1-.24-.95c.73-1.65 6.87 2.35 10.02 4.19.76.44 1.46 1.39.17 1.8a1 1 0 0 1-.71-.03c-2.67-1.18-2.81 3.12-3.27 4.63a1.04.99 86.3 0 1-.51.61l-.68.33q-.21.11-.36.31Zm-1.735-.971a.88.64 135.3 0 0 1.075-.164.88.64 135.3 0 0 .175-1.074.88.64 135.3 0 0-1.075.164.88.64 135.3 0 0-.175 1.074Zm-.475 2.991q-.6.5.29.69a.65.64 10.7 0 0 .77-.52l.26-1.63a.51.51 0 0 0-.53-.59q-.75.04-.47.99a1 .98-28.8 0 1-.32 1.06ZM104.97 33.01l-.31 3.74a.8.8 0 0 1-.62.71c-1.7.4-2.76-5.55-3.06-6.74a1 .99-15.3 0 1 .69-1.2c6.42-1.87 13.16-4.14 19.85-5.46q1.41-.28 2.67-1.1a1 1 0 0 1 1.48.46c.26.66 3.26 8.21.76 7.45a1.02 1-4 0 1-.61-.52q-1.08-2.23-3.36-3.11a1.05.98 46.8 0 0-.62-.04l-4.09 1.11a1 1 0 0 0-.7 1.24l6.46 22.61a.99.99 0 0 0 1.12.71l2.45-.39a.8.79-15.1 0 1 .88.5c.28.74-.11 1.28-.84 1.51-1.46.47-12.1 4.31-12.39 2.37a.81.81 0 0 1 .36-.79l2.41-1.56a1 1 0 0 0 .42-1.11l-6.25-22.48a1 1 0 0 0-1.33-.66l-4.75 1.9a1.01.99 81.5 0 0-.62.85ZM88.36 70.99l1.85-.59a1.02 1-24.8 0 1 1.14.41c.98 1.5-8.51 7.52-9.01 5.45a.79.78-32.3 0 1 .16-.7q1.5-1.77 1.02-4.81-2.25-14.09-4.92-26.64-.99-4.7 2.92-1.91 11.51 8.19 23.25 16.06 1.44.97 3.67.07a1.05 1 40.9 0 1 .64-.03c3.49.99-5.34 5.81-8.21 7.59-.8.5-2.05.5-2.07-.64a1.01 1.01 0 0 1 .37-.8c3.2-2.56-2.36-4.74-3.95-6.12a1 1 0 0 0-1.2-.08l-7.83 5.07a1.01 1-22.7 0 0-.44 1.06l1.33 5.88a1 1 0 0 0 1.28.73Zm2.28-15.82-5.55-3.76q-1.97-1.33-1.55 1.01l1.2 6.62a1 .99 68.1 0 0 1.53.66l4.36-2.87a1 .99-44.8 0 0 .01-1.66ZM233.58 68.25a1 1 0 0 0 1.18-.26l15.42-17.9a.99.99 0 0 0 .1-1.17l-1.58-2.64a.81.8 39.3 0 1-.07-.67q.32-.91 1.34-.53c2.21.83 7.13 5.88 9.21 7.64a.99.99 0 0 1 .19 1.31q-1.01 1.54-2.29-.35a1.01.99-21.8 0 0-1-.42c-2.91.51-15.23 15.94-16.98 18.88a1.01 1.01 0 0 0 .04 1.09l1.38 1.94a1 .98 49 0 1-.08 1.26l-.24.26a.51.51 0 0 1-.7.04l-9.4-7.86a1 1 0 0 1-.35-.84l.02-.35a.81.8-75.3 0 1 1.14-.67l2.67 1.24ZM91.36 85.64l-1.67.55a.33.32 62.8 0 1-.36-.12q-.31-.4.27-.84.15-.11.29-.24 23.87-20.59 52.24-26.17.73-.14 3.28-.22c1.6-.05 2.96-.64 4.38-.81q13.32-1.59 25.4.05 1.97.26 3.94.6c33.62 5.69 61.9 26.48 77.27 56.85q19.53 38.61 6.7 81.15a1.02 1.02 0 0 1-.73.69q-1.8.42-.76 1.04a1 1 0 0 1 .43 1.19c-16.54 46.42-64.18 76.18-112.99 69.84-58.46-7.61-100.81-60.34-92.64-119.68q4.9-35.56 31.65-62.87a.99.99 0 0 1 1.14-.2q1.74.83 2.6-.15.99-1.13-.44-.66Zm-7.79 10.83c-.2.07-.19.04-.32.2-39.55 47.83-30.2 118.21 21.76 152.81q18.47 12.3 40.25 15.8c65.78 10.56 122.1-41.94 119.49-107.3-.05-1.33-.71-3.33-.14-5.12a.96.96 0 0 0-.03-.67q-.4-1.01-.7-3.14a102.481 102.481 0 0 0-30.73-59.81c-38.26-36.47-96.68-38.62-137.63-4.63-2.31 1.91-3.81 3.08-5.94 5.29q-3.01 3.12-5.81 6.44a.48.44 9.2 0 1-.2.13Zm164.16 7.54q.14.15.34.22a.51.51 0 0 0 .66-.39q.17-.81-.69-.68-.93.14-.31.85ZM63.49 201.08l.31.36q1.2 1.42.89-.41-.08-.53-.61-.75-1.97-.83-.59.8Zm191.07 11.09.16.33a.41.41 0 0 0 .68.07q1.38-1.63-.38-1.32a.64.64 0 0 0-.46.92ZM56.57 84.15a1 1 0 0 0 1.45-.25c1.36-2.11 5.86-6.6 2.69-8.88a1 .99 34.1 0 1-.26-1.34l.16-.26a1 .99 34.3 0 1 1.44-.27c.86.64 9.83 6.51 7.17 7.7a.81.79 43.5 0 1-.63.01l-2.91-1.17a1 .99 30.4 0 0-1.15.29l-4.47 5.49a1 .99-52 0 0 .17 1.43l7.9 5.98a1 1 0 0 0 1.37-.16c3.43-4.1 7.35-7.57 4.42-13.35-.44-.88-.73-2.01.41-2.31a1 .99-24.7 0 1 1.09.4l4.09 6.02a1.02 1.01-43.3 0 1-.04 1.18l-7.37 9.5q-1.02 1.31-1.41-.31-.08-.31-.2-.5-.6-.86-.91.14c-.2.62-3.38 11.88-5.33 8.49a1 1 0 0 1 .08-1.12q1.77-2.23-.83-4.35-7.56-6.14-15.47-11.78c-1.75-1.24-3.12-2.87-4.88-.26a1 1 0 0 1-1.31.32l-.26-.15a.8.8 0 0 1-.29-1.14c2.03-3.1 4.68-5.83 6.67-8.73q3.14-4.56 6.73-8.78a1.01 1 33.6 0 1 1.22-.24c.67.34 7.12 4 4.75 5.14a.52.51 41.7 0 1-.39.02l-3.61-1.25a1 .99-60.2 0 0-1.11.31l-6.03 7.49a1 .99 38.5 0 0 .17 1.42l6.88 5.27ZM272.65 81.98c10.01-9.57-7.4-18.52-5.67-6.83.66 4.41 2.8 12.27.09 16.1-6.28 8.88-16.32.99-18.04-6.84a1.01 1-2.4 0 0-.86-.78l-1.89-.24a.32.31-86.2 0 1-.28-.33l.02-.67a1.02 1.02 0 0 1 .38-.75l7.12-5.69a1.01 1 48.1 0 1 1.34.08l.2.2a1 .99-47.2 0 1 .05 1.35c-4.21 4.9-3.61 10.4 2.39 13.36a1.03.97 53.1 0 0 .58.1c6.6-.97 3.84-9.57 3.11-13.89-2.49-14.57 15.11-14.92 17.85-1.93a1 .99 76.2 0 0 1.24.76q1.36-.37 1.71.71a1 1 0 0 1-.3 1.06c-.66.57-9.31 8.6-9.35 4.96a1.02 1.01-22.1 0 1 .31-.73Zm-7.67 4.35q.58-.29.53-.87a.52.51-1.2 0 0-.49-.46q-.88-.04-.77.92a.51.51 0 0 0 .73.41Z"/><path fill="#282828" d="m170.45 172.76-.28 6.23a1.01 1 85.5 0 1-.79.93q-1.31.29-2.56-.33a1.01 1-77.6 0 1-.56-.89c0-.59.66-8.93-1.9-6.16a1.01 1.01 0 0 0-.27.66l-.12 5.73a1 .99 3 0 1-1.08.97l-1.62-.13a1.01 1 4.6 0 1-.92-1.07l.44-5.84a1 .97 21.7 0 0-.38-.85c-2.26-1.82-2.38 6.11-2.5 7a.99.98-88.9 0 1-.89.86q-3.57.35-2.33-3.83a.8.8 0 0 1 .69-.56l.33-.04q1.27-.13.09-.62-1.49-.64-1.29-2.34a1 .99 23.7 0 0-.35-.89c-1.97-1.64-1.85 5.92-1.9 6.67a1.01 1-79.8 0 1-1.27.89l-.83-.23a1 1 0 0 1-.72-1.02l.33-5.73a.81.8 5.4 0 0-.7-.84q-1.27-.16-1.5 1.39-.28 1.84-.51 3.71-.23 1.81-1.63.65-.41-.34-.72-.83c-4.47-6.93.26-20.19-4.34-24.13-3.08-2.63-7.97-.91-10.42 1.81q-1.85 2.06-3.75.05-3.5-3.7-7.22-7.98c-3.18-3.64-.58-7.81 3.31-9a1.01 1-16.2 0 0 .68-1.22q-1.93-7.17-3.37-14.43c-4.46-22.47 5.6-49.14 30.43-53.35q14.14-2.39 26.15-.17c14.2 2.62 25.71 18.12 28.7 31.63 2.75 12.45-2.86 24.5-3.11 36.72a1 1 0 0 0 .78 1l1.47.33q.21.04.38.17c5.62 4.13-3.47 15.31-6.81 18.27a1.02 1.01 41 0 1-1.23.08c-3.18-2.14-8.64-6.68-12.14-2.73a1.13 1.1-21 0 0-.24.52q-1.2 8.21-2.32 16.38c-.28 2.01.36 4.24-.18 6.04q-.71 2.41-3.02 3.05a.99.99 0 0 1-1.26-.91q-.14-2.6.05-5.13c.26-3.45-2.32-2.22-2.11.61q.19 2.54-.13 5.13a1 .99 15.2 0 1-1.39.79l-.64-.27a1 1 0 0 1-.56-1.2q.88-3.09-.37-6.01a.49.48 77.5 0 0-.48-.31l-.35.01a.79.79 0 0 0-.77.76Zm-28.76-95.95-.46-.07a.51.51 0 0 0-.56.67q.39 1.16 1.3.27.73-.72-.28-.87Zm24.43.81c-.88-2.08-1.67 3.71-.03.7a.83.81 48 0 0 .03-.7Zm13.91.81c.25 1.94 1.82-1.36.36-.66a.66.65 74 0 0-.36.66Zm7.94 24.37q-.57-1.36-1.92-.28a.99.97 70.5 0 0-.37.79q.02 2.73 2.09.57a.99.98 55.7 0 0 .2-1.08Zm-43.55 12.1c3.18 2.67.25-1.94-.13-.42a.43.43 0 0 0 .13.42Zm30.9-.3q-.17.45-.1.84.15.82.6.12.36-.55.09-1.01-.36-.6-.59.05Zm23.27 15.54q1.44-4.45-.22-9a1.02 1.01-11.6 0 0-.99-.65q-12.82.53-26.01 1.77c-6.38.59-4.84 6.25-1.49 9.46 8.31 7.97 12.33 12.29 24.1 5.28q1.1-.65 3.38-4.52a.99.99 0 0 1 .95-.49q1.62.14.57-.8a.99.99 0 0 1-.29-1.05Zm-43.01-6.31q-2.21-1.16-4.71-1.31-10.4-.61-20.62-1.73c-2.41-.26-4.26 2.28-4.27 4.68-.06 6.55 1.74 13.09 8.92 14.84q8.18 1.99 15.57-4.05c1.76-1.43 9.77-10 5.11-12.43Zm-31.48 14.84.2.28a.41.4 45.8 0 0 .65.01q1.16-1.5-.56-1.09a.52.51 65.5 0 0-.29.8Zm41.39 1.91q-2.65-2.41-2.55 1.17l.37 12.27a1 1 0 0 0 .75.94c11.16 2.88 4.82-11.32 1.43-14.38Zm-8.09 15.09a1.02.98-29.6 0 0 .78.2c3.67-.56 3.42-3.31 3.64-6.15q.35-4.39.13-8.83-.09-1.89-1.6-.75c-4.38 3.32-8.61 11.03-2.95 15.53ZM289.3 114.53l8.1-4.21a1.01 1-17.8 0 0 .53-1.02l-.39-2.91a.8.8 0 0 1 .95-.89q.13.02.28.07a1.06 1.05 86 0 1 .57.5l5.35 10.51a.65.65 0 0 1-.14.77l-.26.23a1 1 0 0 1-1.58-.32q-1.21-2.65-3.96-1.29-10.46 5.19-19.85 10a1.01 1-19.5 0 0-.52 1.09q.86 4.36-1.03 3.76a1.02 1 85.4 0 1-.59-.51l-5.12-10.23a.99.99 0 0 1 .08-1.01l.22-.33a.64.64 0 0 1 1.02-.04l1.73 2.09a1.01 1-32 0 0 1.2.27l8.95-4.28a1.01 1 63.9 0 0 .46-1.35l-4.68-9.45a1.01 1.01 0 0 0-1.37-.44c-2.24 1.2-4.67 2.47-7.16 3.48q-2.96 1.18-1.53 4.16a.99.99 0 0 1-.24 1.19q-1.12.97-1.78-.35c-.82-1.66.58-3.11-1.93-4.33a.99.99 0 0 1-.46-.46l-2.55-5.25a1.07 1.02 36.4 0 1-.1-.56q.18-1.42 1.34-1.09a.98.97-1 0 1 .68.65q.85 2.64 3.24 1.55 3.56-1.62 18.94-9.39c2.09-1.06 2.87-2.47 1.53-4.59a.65.64-29.4 0 1 .26-.92l.32-.15a.99.99 0 0 1 1.31.41c2.02 3.6 7.46 12.68 4.23 12.03a.99.97 84.4 0 1-.73-.61c-1.7-4.29-8.33.65-10.9 1.96a1 1 0 0 0-.45 1.33l4.67 9.49a1.01 1-26.8 0 0 1.36.44Zm-20.55-4.94-.01.28q-.02.92.68.32 1.23-1.05.06-1.22a.64.64 0 0 0-.73.62ZM48.54 126.04l-22.11-9.67a1 1 0 0 0-1.38.75q-.36 2.1-1.7 1.94a1 .99-76.6 0 1-.82-1.34q4.12-10.94 7.75-16.65c5.79-9.13 19.7-6.98 25.25.9 5.79 8.21-.45 19.19-4.99 28.68a.64.63-64 0 1-.85.3l-.35-.16a1.01 1-63.9 0 1-.46-1.35q.63-1.27.23-2.75a1.01 1 3.8 0 0-.57-.65Zm-11.27-25.42a.64.64 0 0 0-.64-.64.64.64 0 0 0-.64.64.64.64 0 0 0 .64.64.64.64 0 0 0 .64-.64Zm-7.45 11.14 20.52 8.94a1.01 1.01 0 0 0 1.18-.29c12.37-15.31-19.24-29.26-22.29-9.72a1.01 1.01 0 0 0 .59 1.07ZM290.25 148.07a1.01 1.01 0 0 1 .56-.43l6.47-1.92a.99.95 42.6 0 1 .53-.01q4.43 1.16 7.01 5.47c5.69 9.53 6.18 22.54-.99 31.52-4.19 5.23-11.78 7.05-16.39 1.46-7.39-8.94-2.71-27.13 2.81-36.09Zm2.02 1.91c-1.01 1.01-1.55 6.9-1.69 8.04-.55 4.31.16 9.17.68 13.75.15 1.31-2.01 12.22.69 11.33a.64.64 0 0 0 .41-.8q-.66-2.12-.19-4.31c1.11-5.15 1.36-9.88.53-15.23-.8-5.22.63-8.14.27-12.52q-.07-.88-.7-.26ZM37.48 187.22q-.11.14-.27.24c-7.05 4.12-12.62 1.42-16.58-4.96-6.27-10.13-5.18-24.5 3.54-33.34q2.4-2.43 5.74-1.34l4.82 1.58a.96.95-9.8 0 1 .46.32c5.74 7.04 7.53 19.49 6.56 28.21q-.5 4.56-4.27 9.29Zm-3.22-34.14q.27-.55.04-.95-.86-1.5-1.18.19c-.52 2.69.44 5.32.3 7.63-.45 7.27-1.26 12.41.35 20.8q.24 1.26-.35 3.07a.63.63 0 0 0 .24.72q.53.36 1-.13 1.55-1.63.82-3.66-1.59-4.39-.75-8.99 1.65-9.09-.55-17.99a.99.98-38.4 0 1 .08-.69Zm-14.28 18.66q.61-1.08-.58-.74-.78.22-1.17 1.02-.49.97.57.73.71-.17 1.18-1.01Z"/><path fill="#282828" d="M168.21 203.81c.18-.75 12.48-6.15 13.38-6.58q2.61-1.24 5.24-2.44 8.85-4.07 17.44-8.26c5.32-2.59 5.96-13.16 14.98-6.61q2.94 2.14.46 4.78l-2.93 3.12a.99.97 64.8 0 0-.27.77c.37 4.47.47 8.97-5.38 9.25a1 .99-30.5 0 1-.59-.15q-3.58-2.26-6.3-1-15.4 7.14-30.64 14.19-1.86.86-.04 1.79 13.69 7.08 27.46 13.97c4.14 2.07 12.06 1.86 16.69 1.77q4.52-.08 5.94 4.61c1.25 4.14-1.85 5.13-4.14 7.26a1.06 1.05-15.6 0 0-.3.53l-1.1 5.5a1.02 1.01-7.9 0 1-.52.68q-5.44 2.9-10.39-.6a1.04.99-81.5 0 1-.38-.54c-.89-3.11-1.96-5.19-4.93-6.9q-19.01-10.93-39.49-22.71a.99.97 46.9 0 0-.91-.04q-16.68 7.63-34.44 15.59-3.01 1.35-5.21 3.25c-3.63 3.15-7.26 11.84-12.55 12.27q-6.87.57-5.9-9.09a1 .99 21.6 0 0-.39-.9q-6.67-4.98-.28-10.87c4.94-4.57 6.95.98 11.74-.92q17.37-6.87 34.76-13.72 2.04-.81.09-1.82l-31.74-16.51a1 .98 18.3 0 1-.53-1.03q.12-.81-.54-1.24-.88-.57-.48.4c.96 2.3-2.21.73-3.64 1.19-4.84 1.54-8.02-1.68-8.51-6.26-.54-5.02 2.63-4.85 6.46-4.11a1.9 1.9 0 0 0 2.16-1.27c1.54-4.64 9.32-3.03 10.19 2.11q.43 2.57 2.73 3.82 17.48 9.49 34.83 18.44c2.22 1.15 4.69-1.08 7.2-1.1a.8.8 0 0 0 .77-.62Zm-47.74-13.77c3.35 2.16.09-1.62-.14-.33a.33.32 22.4 0 0 .14.33Zm87.8 1.83c2.94 2.53.2-2.28-.17-.49a.52.5 26.8 0 0 .17.49Zm-20.53 36.3q-.04 1.54 1.07.89a.64.64 0 0 0 .05-1.07l-.31-.22q-.79-.58-.81.4Zm-76.55 10.92-.25.06a.52.52 0 0 0-.36.68q.65 1.73 1.22-.09.26-.86-.61-.65ZM266.37 224.05q6.8-6.97 13.54-3.13c5.09 2.91 7.49 8.81 3.95 13.97-5.92 8.62-19.49 2.68-18.42-7.49.08-.79.42-1.44 1.32-1.11a1.01 1.01 0 0 1 .62.74q1.23 5.93 7.8 8.06 7.38 2.38 8.21-4.8a1.01.94-58.9 0 0-.13-.62c-2.21-3.77-11.25-10.79-14.83-5.17a1.09 1.05 3.5 0 1-.46.39q-.77.32-1.14.31-1.53-.06-.46-1.15ZM53.31 254.44q2.68.14 1.23 1.93a1.03 1.01 20.6 0 1-.83.37q-10.65-.56-14.04-8.97c-7.87-19.51 23.74-31.75 30.8-10.43.54 1.63-.55 4.39 2.59 3.96a1.05 1.01 60.1 0 1 .76.22c1.61 1.3-5.53 5.59-8.14 7.25a.4.39 48.3 0 1-.48-.03l-.21-.17a1 .99 38.3 0 1-.17-1.36q6.74-9.11-1.77-15.16-1.73-1.23-3.93-1.09c-7.21.49-18 6.28-16.03 15.05q1.79 7.97 10.22 8.43Z"/><rect width="1.48" height="21" x="-.74" y="-10.5" fill="#282828" rx=".72" transform="rotate(30.3 -292.159 650.55)"/><path fill="#282828" d="M275.47 251.22q.93 4.87-2.4 9.11c-9.8 12.5-27.78 2.41-25.99-11.97q.95-7.56 8.31-10.68a1.01.99 78.3 0 0 .61-.94q-.04-1.71.38-2.36c.81-1.28 6.74 3.79 7.6 4.48 1.73 1.39.41 2.36-1.26 1.66-3.33-1.39-6.72-1.03-9.43 1.49-8.94 8.31 6.93 23.96 15.96 17.68q5.54-3.86 3.72-10.62-.46-1.74.75-2.05a.8.79 62.6 0 1 .83.27c.98 1.26.72 2.83.92 3.93ZM70.75 257.42c11.82-11.98 30.18-.9 25.41 15.49q-.02.07-.05.13c-11.3 25.11-43.53 2.79-25.36-15.62Zm3.53 21.98c11.7 7.08 27.59-22.44 10.48-23.17-8.45-.36-20.51 17.11-10.48 23.17ZM224.46 283.29a1 .99-17.8 0 0-1.41-.72l-6.37 3.01a1 1 0 0 0-.47 1.34l3.85 7.95a1 1 0 0 0 1.38.44c4.18-2.3 9.19-2.97 8.95-9.05q-.07-1.74 1.22-1.73a1 1 0 0 1 .98.89l.74 6.36a1 .99-16.3 0 1-.56 1.01l-17.24 8.48q-1.68.82-2.16-.31a.8.8 0 0 1 .37-1.03q1.34-.68 1.83-2.13a.99.98 41 0 0-.06-.76l-9.68-19.35a1.01 1-24 0 0-1.27-.48c-3.89 1.54-3.71-.62-1.36-1.77q8.42-4.11 16.74-8.21a1.01 1 60.1 0 1 1.28.35q1.21 1.84 2.3 4.61.37.95-.2 1.34a.51.5 47.9 0 1-.64-.04l-2.57-2.39a1.01 1-35.9 0 0-1.1-.17l-7.84 3.58a1 1 0 0 0-.48 1.35l3.29 6.73a1.01 1.01 0 0 0 1.24.5c2.71-.97 7.89-3.02 6.2-5.99a1.01 1 56.5 0 1 .26-1.29l.21-.16a.8.8 0 0 1 1.21.28l3.78 7.82a.99.99 0 0 1-.78 1.42q-1.27.16-1.64-1.88ZM103.09 296.92l9.44-21.85a1.01 1-44.6 0 0 .01-.76q-.59-1.47-2.22-1.83a.8.79 18.5 0 1-.56-1.11l.16-.34a1 1 0 0 1 1.28-.51l2.55 1.02a1.01 1.01 0 0 1 .63.84q.09 1.05 1.19.32a1.01 1.01 0 0 1 .96-.08l13.92 6.12a1.01 1.01 0 0 1 .52 1.3l-2.13 5.09a1 .99-2.7 0 1-.48.52c-1.95.94-.71-4.22-3.14-5.68q-3.14-1.9-6.62-3a1 1 0 0 0-1.22.57l-3.22 7.6a1 1 0 0 0 .59 1.33l4.97 1.78a1 .99 28.5 0 0 1.13-.33l1.3-1.7a1 .99 20.2 0 1 .85-.39c2.6.14-1.99 8.58-2.57 9.79a1.02 1 4.9 0 1-.66.54c-2.13.53-.65-2.93-1.06-4.1a1.02 1 3.2 0 0-.52-.57l-4.71-2.21a1 1 0 0 0-1.35.52l-3.67 8.93a1.59 1.52-74.1 0 0 1.13 2.16c1.36.22 2.21 3.4.02 2.48q-5.18-2.17-10.34-4.32-2.03-.84-.07-1.82 1.07-.53 2.53.19a1 .99-65 0 0 1.36-.5ZM177.36 310.19a1.01 1-17 0 0 .56-1.04q-1.54-11.53-3.5-22.16-.55-3.04-3.34-2.74a.81.8-7.1 0 1-.88-.68c-.22-1.62 17.5-3.85 20.67-4.37a1 .99 81.3 0 1 1.15.85l.83 5.97a.64.64 0 0 1-.63.73h-.26a.81.8-13 0 1-.72-.44l-1.43-2.84a1 1 0 0 0-.8-.54q-4.69-.43-9.03 1.12a1 .99-14.6 0 0-.65 1.1l1.32 8.17a1.07 1.03-76.3 0 0 .36.62q1.32 1.07 2.49.02a1.04 1.02 22.9 0 1 .66-.26c2.39-.03 5.68-.55 5.12-3.86a.99.97 57.7 0 1 .16-.73c2.18-3.18 4.17 10.75 2.29 10.79a.67.65-15 0 1-.57-.32l-1.74-2.98a1.02 1.01 70.3 0 0-1.02-.49l-6.15.97a.99.99 0 0 0-.83 1.15l1.65 9.79a1 .99 78.2 0 0 1.22.8c4.48-1.1 9.67-.15 11.01-6.06.23-1.01.98-2.41 2.11-1.44a1.01 1-65.6 0 1 .34.91l-1.04 6.73a1.01 1.01 0 0 1-.83.84c-2.4.39-20.46 3.77-21.15 2.62a.8.79 62.1 0 1 .34-1.13l2.29-1.1ZM147.22 286.23l-.69 8.19a.99.99 0 0 0 .98 1.08c2.31.02 6.61 1.02 6.93-2.38a1.01 1-87.2 0 1 1-.91h.28a.8.8 0 0 1 .8.83c-.05 1.37.24 11.13-2.07 10.05a.98.98 0 0 1-.54-.66l-.64-2.49a1.02 1.01-3 0 0-.83-.74l-5.17-.75a1 1 0 0 0-1.14.91l-.84 10.35a1 .99-1.4 0 0 1.13 1.07q1.65-.22 2.32.56 1.53 1.79-.82 1.65c-3.3-.19-12.84-.18-12.25-2.25a.8.8 0 0 1 .84-.58q3.08.28 3.38-2.97 1.47-16.52 1.85-21.75a1.01 1.01 0 0 0-.61-1l-2.74-1.14a.8.79 88.8 0 1-.42-.41c-.5-1.13 1.12-1.43 1.96-1.35q10 .95 20.04 1.75a.98.98 0 0 1 .91 1.07c-.05.6.16 8.71-2.18 6.24a.97.95 22.7 0 1-.27-.64q-.13-3.12-2.72-3.89-2.53-.74-7.49-.76a1.01 1-87.5 0 0-1 .92Z"/></svg>