<svg id="visual" viewBox="0 0 900 600" width="900" height="600" xmlns="http://www.w3.org/2000/svg" xmlns:xlink="http://www.w3.org/1999/xlink" version="1.1"><rect x="0" y="0" width="900" height="600" fill="#232831"></rect><g transform="translate(446.53337303515747 285.42383360688734)"><path d="M84.3 -87.8C120.4 -70.2 168.5 -54.2 185.6 -23C202.8 8.2 188.8 54.6 165.5 96C142.2 137.5 109.4 174 71.2 182.1C32.9 190.1 -10.7 169.8 -52.8 151.6C-94.9 133.4 -135.3 117.5 -159.1 86.8C-182.9 56.1 -189.9 10.7 -184.7 -35C-179.5 -80.6 -162.1 -126.5 -129.2 -144.7C-96.4 -162.9 -48.2 -153.5 -12.1 -139.1C24.1 -124.7 48.2 -105.5 84.3 -87.8" fill="#1d222b"></path></g></svg>