<svg id="visual" viewBox="0 0 900 450" width="900" height="450" xmlns="http://www.w3.org/2000/svg" xmlns:xlink="http://www.w3.org/1999/xlink" version="1.1"><path d="M0 270L15 271.3C30 272.7 60 275.3 90 285.5C120 295.7 150 313.3 180 325C210 336.7 240 342.3 270 335.3C300 328.3 330 308.7 360 305.3C390 302 420 315 450 327.7C480 340.3 510 352.7 540 344.5C570 336.3 600 307.7 630 295.2C660 282.7 690 286.3 720 300.2C750 314 780 338 810 343.7C840 349.3 870 336.7 885 330.3L900 324L900 451L885 451C870 451 840 451 810 451C780 451 750 451 720 451C690 451 660 451 630 451C600 451 570 451 540 451C510 451 480 451 450 451C420 451 390 451 360 451C330 451 300 451 270 451C240 451 210 451 180 451C150 451 120 451 90 451C60 451 30 451 15 451L0 451Z" fill="#2e3032"></path><path d="M0 333L15 341.7C30 350.3 60 367.7 90 364.5C120 361.3 150 337.7 180 328.2C210 318.7 240 323.3 270 333.8C300 344.3 330 360.7 360 365.8C390 371 420 365 450 355.2C480 345.3 510 331.7 540 327C570 322.3 600 326.7 630 339C660 351.3 690 371.7 720 369.2C750 366.7 780 341.3 810 341C840 340.7 870 365.3 885 377.7L900 390L900 451L885 451C870 451 840 451 810 451C780 451 750 451 720 451C690 451 660 451 630 451C600 451 570 451 540 451C510 451 480 451 450 451C420 451 390 451 360 451C330 451 300 451 270 451C240 451 210 451 180 451C150 451 120 451 90 451C60 451 30 451 15 451L0 451Z" fill="#252729"></path><path d="M0 415L15 407.7C30 400.3 60 385.7 90 380.8C120 376 150 381 180 389.2C210 397.3 240 408.7 270 414.5C300 420.3 330 420.7 360 419.2C390 417.7 420 414.3 450 410.7C480 407 510 403 540 403.5C570 404 600 409 630 403C660 397 690 380 720 380.3C750 380.7 780 398.3 810 404.3C840 410.3 870 404.7 885 401.8L900 399L900 451L885 451C870 451 840 451 810 451C780 451 750 451 720 451C690 451 660 451 630 451C600 451 570 451 540 451C510 451 480 451 450 451C420 451 390 451 360 451C330 451 300 451 270 451C240 451 210 451 180 451C150 451 120 451 90 451C60 451 30 451 15 451L0 451Z" fill="#1d1f20"></path></svg>