<svg id="visual" viewBox="0 0 900 600" width="900" height="600" xmlns="http://www.w3.org/2000/svg" xmlns:xlink="http://www.w3.org/1999/xlink" version="1.1"><path d="M0 437L21.5 447.2C43 457.3 86 477.7 128.8 471.3C171.7 465 214.3 432 257.2 418.7C300 405.3 343 411.7 385.8 428C428.7 444.3 471.3 470.7 514.2 481.5C557 492.3 600 487.7 642.8 459.5C685.7 431.3 728.3 379.7 771.2 376C814 372.3 857 416.7 878.5 438.8L900 461L900 601L878.5 601C857 601 814 601 771.2 601C728.3 601 685.7 601 642.8 601C600 601 557 601 514.2 601C471.3 601 428.7 601 385.8 601C343 601 300 601 257.2 601C214.3 601 171.7 601 128.8 601C86 601 43 601 21.5 601L0 601Z" fill="#5d6b73"></path><path d="M0 423L21.5 425.7C43 428.3 86 433.7 128.8 451.3C171.7 469 214.3 499 257.2 496.7C300 494.3 343 459.7 385.8 446.3C428.7 433 471.3 441 514.2 466.3C557 491.7 600 534.3 642.8 550.5C685.7 566.7 728.3 556.3 771.2 534.3C814 512.3 857 478.7 878.5 461.8L900 445L900 601L878.5 601C857 601 814 601 771.2 601C728.3 601 685.7 601 642.8 601C600 601 557 601 514.2 601C471.3 601 428.7 601 385.8 601C343 601 300 601 257.2 601C214.3 601 171.7 601 128.8 601C86 601 43 601 21.5 601L0 601Z" fill="#2b343a"></path></svg>