<svg id="visual" viewBox="0 0 900 450" width="900" height="450" xmlns="http://www.w3.org/2000/svg" xmlns:xlink="http://www.w3.org/1999/xlink" version="1.1"><path d="M0 312L12.5 308.8C25 305.7 50 299.3 75 299.2C100 299 125 305 150 313.8C175 322.7 200 334.3 225 339.5C250 344.7 275 343.3 300 339.7C325 336 350 330 375 320.7C400 311.3 425 298.7 450 300.5C475 302.3 500 318.7 525 320.5C550 322.3 575 309.7 600 310.5C625 311.3 650 325.7 675 323.7C700 321.7 725 303.3 750 301.3C775 299.3 800 313.7 825 322.2C850 330.7 875 333.3 887.5 334.7L900 336L900 451L887.5 451C875 451 850 451 825 451C800 451 775 451 750 451C725 451 700 451 675 451C650 451 625 451 600 451C575 451 550 451 525 451C500 451 475 451 450 451C425 451 400 451 375 451C350 451 325 451 300 451C275 451 250 451 225 451C200 451 175 451 150 451C125 451 100 451 75 451C50 451 25 451 12.5 451L0 451Z" fill="#363434"></path><path d="M0 346L12.5 351.7C25 357.3 50 368.7 75 370.2C100 371.7 125 363.3 150 355.7C175 348 200 341 225 342.8C250 344.7 275 355.3 300 362.7C325 370 350 374 375 369.8C400 365.7 425 353.3 450 346.5C475 339.7 500 338.3 525 341.2C550 344 575 351 600 350C625 349 650 340 675 342.8C700 345.7 725 360.3 750 361.5C775 362.7 800 350.3 825 351.5C850 352.7 875 367.3 887.5 374.7L900 382L900 451L887.5 451C875 451 850 451 825 451C800 451 775 451 750 451C725 451 700 451 675 451C650 451 625 451 600 451C575 451 550 451 525 451C500 451 475 451 450 451C425 451 400 451 375 451C350 451 325 451 300 451C275 451 250 451 225 451C200 451 175 451 150 451C125 451 100 451 75 451C50 451 25 451 12.5 451L0 451Z" fill="#2a2929"></path><path d="M0 397L12.5 398.5C25 400 50 403 75 402.2C100 401.3 125 396.7 150 391.3C175 386 200 380 225 379.3C250 378.7 275 383.3 300 383.3C325 383.3 350 378.7 375 381C400 383.3 425 392.7 450 399.2C475 405.7 500 409.3 525 405C550 400.7 575 388.3 600 383.2C625 378 650 380 675 380.7C700 381.3 725 380.7 750 384.8C775 389 800 398 825 398.7C850 399.3 875 391.7 887.5 387.8L900 384L900 451L887.5 451C875 451 850 451 825 451C800 451 775 451 750 451C725 451 700 451 675 451C650 451 625 451 600 451C575 451 550 451 525 451C500 451 475 451 450 451C425 451 400 451 375 451C350 451 325 451 300 451C275 451 250 451 225 451C200 451 175 451 150 451C125 451 100 451 75 451C50 451 25 451 12.5 451L0 451Z" fill="#1e1e1e"></path></svg>