<svg id="visual" viewBox="0 0 900 450" width="900" height="450" xmlns="http://www.w3.org/2000/svg" xmlns:xlink="http://www.w3.org/1999/xlink" version="1.1"><path d="M0 279L12.5 281.2C25 283.3 50 287.7 75 287.5C100 287.3 125 282.7 150 290C175 297.3 200 316.7 225 326.2C250 335.7 275 335.3 300 327.3C325 319.3 350 303.7 375 299.7C400 295.7 425 303.3 450 313.2C475 323 500 335 525 336.7C550 338.3 575 329.7 600 322.7C625 315.7 650 310.3 675 304.2C700 298 725 291 750 297.5C775 304 800 324 825 330.2C850 336.3 875 328.7 887.5 324.8L900 321L900 451L887.5 451C875 451 850 451 825 451C800 451 775 451 750 451C725 451 700 451 675 451C650 451 625 451 600 451C575 451 550 451 525 451C500 451 475 451 450 451C425 451 400 451 375 451C350 451 325 451 300 451C275 451 250 451 225 451C200 451 175 451 150 451C125 451 100 451 75 451C50 451 25 451 12.5 451L0 451Z" fill="#292929"></path><path d="M0 333L12.5 336.8C25 340.7 50 348.3 75 352.8C100 357.3 125 358.7 150 361.8C175 365 200 370 225 369.7C250 369.3 275 363.7 300 357.5C325 351.3 350 344.7 375 342.8C400 341 425 344 450 350.2C475 356.3 500 365.7 525 364C550 362.3 575 349.7 600 343.7C625 337.7 650 338.3 675 340.2C700 342 725 345 750 350.2C775 355.3 800 362.7 825 367.7C850 372.7 875 375.3 887.5 376.7L900 378L900 451L887.5 451C875 451 850 451 825 451C800 451 775 451 750 451C725 451 700 451 675 451C650 451 625 451 600 451C575 451 550 451 525 451C500 451 475 451 450 451C425 451 400 451 375 451C350 451 325 451 300 451C275 451 250 451 225 451C200 451 175 451 150 451C125 451 100 451 75 451C50 451 25 451 12.5 451L0 451Z" fill="#232323"></path><path d="M0 373L12.5 378.3C25 383.7 50 394.3 75 398.3C100 402.3 125 399.7 150 395.2C175 390.7 200 384.3 225 381.2C250 378 275 378 300 382C325 386 350 394 375 393.7C400 393.3 425 384.7 450 384.7C475 384.7 500 393.3 525 395.2C550 397 575 392 600 387.3C625 382.7 650 378.3 675 381.8C700 385.3 725 396.7 750 399.7C775 402.7 800 397.3 825 393C850 388.7 875 385.3 887.5 383.7L900 382L900 451L887.5 451C875 451 850 451 825 451C800 451 775 451 750 451C725 451 700 451 675 451C650 451 625 451 600 451C575 451 550 451 525 451C500 451 475 451 450 451C425 451 400 451 375 451C350 451 325 451 300 451C275 451 250 451 225 451C200 451 175 451 150 451C125 451 100 451 75 451C50 451 25 451 12.5 451L0 451Z" fill="#1e1e1e"></path></svg>