<?xml version="1.0" encoding="UTF-8"?><svg id="Layer_1" xmlns="http://www.w3.org/2000/svg" viewBox="0 0 500 500"><defs><style>.cls-1{fill:#fff;}.cls-2{fill:#f0457d;}.cls-3{isolation:isolate;opacity:.09;}.cls-4{fill:#ffd44d;}.cls-5{fill:#db2868;}</style></defs><ellipse class="cls-4" cx="250" cy="420.8" rx="172.91" ry="33.21"/><g><g><path class="cls-2" d="M238.55,419.85l-103.59-167.37c-33.04-53.38-25.02-122.48,19.37-166.87h0c52.83-52.83,138.5-52.83,191.33,0h0c44.39,44.39,52.41,113.48,19.37,166.87l-103.59,167.37c-5.27,8.51-17.64,8.51-22.91,0Z"/><path class="cls-3" d="M256.07,400.02l-103.59-167.37c-29.2-47.18-26.3-106.63,5.41-150.46-1.2,1.12-2.39,2.25-3.56,3.42h0c-44.39,44.39-52.41,113.49-19.37,166.87l103.59,167.37c5.27,8.51,17.64,8.51,22.91,0l8.47-13.69c-5.15,.92-10.74-1.11-13.86-6.14Z"/></g><g><g><circle class="cls-1" cx="250" cy="181.28" r="81.02"/><path class="cls-3" d="M328.35,160.64c.71,4.07,1.1,8.26,1.1,12.53,0,39.96-32.39,72.35-72.35,72.35s-72.35-32.39-72.35-72.35,32.39-72.35,72.35-72.35c.95,0,1.9,.04,2.84,.07-23.91-2.94-48.87,4.75-67.22,23.1-31.64,31.64-31.64,82.94,0,114.59,31.64,31.64,82.94,31.64,114.59,0,21.12-21.12,28.12-50.99,21.05-77.94Z"/></g><g><path class="cls-5" d="M260.47,222.43c0,1.82-.34,3.53-1.03,5.13-.69,1.6-1.62,2.99-2.8,4.17-1.18,1.18-2.56,2.11-4.13,2.8-1.57,.69-3.24,1.03-5.01,1.03h-5.29c-1.87,0-3.6-.34-5.2-1.03s-2.99-1.62-4.17-2.8c-1.18-1.18-2.1-2.57-2.76-4.17-.66-1.59-1-3.3-1-5.13s.33-3.53,1-5.13c.66-1.59,1.59-3,2.76-4.2s2.57-2.15,4.17-2.84c1.59-.69,3.33-1.03,5.2-1.03h5.29c1.77,0,3.44,.34,5.01,1.03s2.95,1.64,4.13,2.84c1.18,1.21,2.11,2.6,2.8,4.2s1.03,3.31,1.03,5.13h0Zm20.43-79.23c-1.56-3.51-3.69-6.48-6.39-8.89s-5.87-4.24-9.51-5.47c-3.64-1.23-7.55-1.84-11.72-1.84h-5.29c-4.48,0-8.61,.58-12.41,1.75s-7.09,2.93-9.88,5.3c-2.79,2.37-4.98,5.35-6.59,8.92-1.21,2.69-1.98,5.74-2.33,9.14-.2,1.91,1.23,3.61,3.14,3.8l14.02,1.37c.66,.06,5.29,0,5.29,0,1.85,.18,3.52-1.12,3.79-2.96,.12-.85,.31-1.61,.54-2.29,.5-1.45,1.2-2.59,2.07-3.42s1.9-1.4,3.06-1.71c.22-.06,.44-.11,.67-.15,1.21,.37,2.23,1.08,3.07,2.13,1.29,1.63,1.94,3.73,1.94,6.32,0,1.8-.16,3.42-.46,4.87s-.84,2.86-1.58,4.21c-.74,1.36-1.78,2.73-3.09,4.12-1.29,1.36-2.92,2.85-4.89,4.48-.07,.06-.15,.12-.23,.17-1.84,1.29-3.4,2.5-4.69,3.64-1.32,1.17-2.43,2.36-3.33,3.59s-1.63,2.56-2.18,3.99c-.55,1.43-.96,3.05-1.25,4.87-.29,1.82-.47,3.9-.56,6.22-.05,1.38-.09,2.91-.11,4.56-.02,1.95,1.54,3.54,3.49,3.54h18.95c1.86,0,3.41-1.46,3.5-3.33,.09-1.87,.25-3.53,.49-4.97,.37-2.24,1.02-4.21,1.94-5.93,.92-1.71,2.15-3.29,3.69-4.74,1.54-1.45,3.47-3.01,5.79-4.68,4.52-3.56,7.88-7.33,10.08-11.32,2.19-3.99,3.29-8.39,3.29-13.17s-.78-8.61-2.34-12.12h0Z"/><path class="cls-2" d="M254.15,217.3c.69,1.6,1.03,3.31,1.03,5.13s-.34,3.53-1.03,5.13-1.62,2.99-2.8,4.17-2.56,2.11-4.13,2.8c-1.57,.69-3.24,1.03-5.01,1.03-1.87,0-3.6-.34-5.2-1.03s-2.99-1.62-4.17-2.8-2.1-2.57-2.76-4.17c-.66-1.59-1-3.3-1-5.13s.33-3.53,1-5.13c.66-1.59,1.59-3,2.76-4.2s2.57-2.15,4.17-2.84c1.59-.69,3.33-1.03,5.2-1.03,1.77,0,3.44,.34,5.01,1.03s2.95,1.64,4.13,2.84c1.18,1.21,2.11,2.6,2.8,4.2Zm21.47-74.1c-1.56-3.51-3.69-6.48-6.39-8.89-2.7-2.41-5.87-4.24-9.51-5.47-3.64-1.23-7.55-1.84-11.72-1.84-4.48,0-8.61,.58-12.41,1.75s-7.09,2.93-9.88,5.3c-2.79,2.37-4.98,5.35-6.59,8.92-1.21,2.69-1.98,5.74-2.33,9.14-.2,1.91,1.23,3.61,3.14,3.8l14.02,1.37c1.85,.18,3.52-1.12,3.79-2.96,.12-.85,.31-1.61,.54-2.29,.5-1.45,1.2-2.59,2.07-3.42s1.9-1.4,3.06-1.71c1.16-.31,2.43-.46,3.79-.46,2.19,0,3.94,.81,5.24,2.44,1.29,1.63,1.94,3.73,1.94,6.32,0,1.8-.16,3.42-.46,4.87s-.84,2.86-1.58,4.21c-.74,1.36-1.78,2.73-3.09,4.12-1.29,1.36-2.92,2.85-4.89,4.48-.07,.06-.15,.12-.23,.17-1.84,1.29-3.4,2.5-4.69,3.64-1.32,1.17-2.43,2.36-3.33,3.59s-1.63,2.56-2.18,3.99-.96,3.05-1.25,4.87c-.29,1.82-.47,3.9-.56,6.22-.05,1.38-.09,2.91-.11,4.56-.02,1.95,1.54,3.54,3.49,3.54h13.67c1.86,0,3.41-1.46,3.5-3.33,.09-1.87,.25-3.53,.49-4.97,.37-2.24,1.02-4.21,1.94-5.93s2.15-3.29,3.69-4.74c1.54-1.45,3.47-3.01,5.79-4.68,4.52-3.56,7.88-7.33,10.08-11.32,2.19-3.99,3.29-8.39,3.29-13.17s-.78-8.61-2.34-12.12h0Z"/></g></g></g></svg>